<svg width="19" height="21" viewBox="0 0 19 21" fill="none" xmlns="http://www.w3.org/2000/svg">
<path d="M9.49925 0.5C8.80785 0.5 8.24925 1.05859 8.24925 1.75V2.5C5.39769 3.07812 3.24925 5.60156 3.24925 8.625V9.35938C3.24925 11.1953 2.57347 12.9688 1.35472 14.3438L1.06566 14.668C0.737534 15.0352 0.659409 15.5625 0.858627 16.0117C1.05785 16.4609 1.50706 16.75 1.99925 16.75H16.9993C17.4914 16.75 17.9368 16.4609 18.1399 16.0117C18.343 15.5625 18.261 15.0352 17.9328 14.668L17.6438 14.3438C16.425 12.9688 15.7493 11.1992 15.7493 9.35938V8.625C15.7493 5.60156 13.6008 3.07812 10.7493 2.5V1.75C10.7493 1.05859 10.1907 0.5 9.49925 0.5ZM11.2688 19.7695C11.7375 19.3008 11.9993 18.6641 11.9993 18H9.49925H6.99925C6.99925 18.6641 7.26097 19.3008 7.72972 19.7695C8.19847 20.2383 8.83519 20.5 9.49925 20.5C10.1633 20.5 10.8 20.2383 11.2688 19.7695Z" fill="#9538EB"/>
</svg>
