<svg width="21" height="19" viewBox="0 0 21 19" fill="none" xmlns="http://www.w3.org/2000/svg">
<path d="M20.7502 8.78125C20.7502 13.2695 16.2736 16.9062 10.7502 16.9062C9.30096 16.9062 7.92596 16.6562 6.68377 16.207C6.21893 16.5469 5.46112 17.0117 4.56268 17.4023C3.62518 17.8086 2.49628 18.1562 1.37518 18.1562C1.12128 18.1562 0.894713 18.0039 0.797057 17.7695C0.699401 17.5352 0.754088 17.2695 0.929869 17.0898L0.941588 17.0781C0.953307 17.0664 0.968932 17.0508 0.992369 17.0234C1.03534 16.9766 1.10174 16.9023 1.18378 16.8008C1.34393 16.6055 1.55878 16.3164 1.77753 15.957C2.16815 15.3086 2.53924 14.457 2.61346 13.5C1.44159 12.1719 0.750182 10.543 0.750182 8.78125C0.750182 4.29297 5.22674 0.65625 10.7502 0.65625C16.2736 0.65625 20.7502 4.29297 20.7502 8.78125Z" fill="white"/>
</svg>
