<svg width="14" height="14" viewBox="0 0 14 14" fill="none" xmlns="http://www.w3.org/2000/svg">
<path d="M12.0586 1.60869L12.3895 1.93955C12.6465 2.19658 12.6465 2.61221 12.3895 2.8665L11.5938 3.66494L10.3332 2.40439L11.1289 1.60869C11.3859 1.35166 11.8016 1.35166 12.0559 1.60869H12.0586ZM5.73672 7.00361L9.40625 3.33135L10.6668 4.59189L6.99453 8.26143C6.91523 8.34072 6.8168 8.39814 6.71016 8.42822L5.11055 8.88486L5.56719 7.28525C5.59727 7.17861 5.65469 7.08018 5.73398 7.00088L5.73672 7.00361ZM10.202 0.681738L4.80703 6.07393C4.56914 6.31182 4.39687 6.60439 4.30664 6.92432L3.52461 9.65869C3.45898 9.88838 3.52187 10.1345 3.69141 10.304C3.86094 10.4735 4.10703 10.5364 4.33672 10.4708L7.07109 9.68877C7.39375 9.5958 7.68633 9.42354 7.92148 9.18838L13.3164 3.79619C14.0848 3.02783 14.0848 1.78096 13.3164 1.0126L12.9855 0.681738C12.2172 -0.0866211 10.9703 -0.0866211 10.202 0.681738ZM2.40625 1.74814C1.07734 1.74814 0 2.82549 0 4.15439V11.5919C0 12.9208 1.07734 13.9981 2.40625 13.9981H9.84375C11.1727 13.9981 12.25 12.9208 12.25 11.5919V8.5294C12.25 8.16572 11.9574 7.87315 11.5938 7.87315C11.2301 7.87315 10.9375 8.16572 10.9375 8.5294V11.5919C10.9375 12.1962 10.448 12.6856 9.84375 12.6856H2.40625C1.80195 12.6856 1.3125 12.1962 1.3125 11.5919V4.15439C1.3125 3.5501 1.80195 3.06064 2.40625 3.06064H5.46875C5.83242 3.06064 6.125 2.76807 6.125 2.40439C6.125 2.04072 5.83242 1.74814 5.46875 1.74814H2.40625Z" fill="white"/>
</svg>
