<svg width="16" height="19" viewBox="0 0 16 19" fill="none" xmlns="http://www.w3.org/2000/svg">
<path d="M8.36216 0.0234375C7.75876 0.0234375 7.27126 0.546608 7.27126 1.19417V1.84905C4.79966 2.26978 2.90762 4.56734 2.90762 7.34051V8.56246C2.90762 10.2234 2.37921 11.8369 1.41444 13.132L0.906482 13.8161C0.708755 14.0795 0.671255 14.4417 0.807618 14.7454C0.943982 15.049 1.23035 15.2429 1.54398 15.2429H15.1803C15.494 15.2429 15.7803 15.049 15.9167 14.7454C16.0531 14.4417 16.0156 14.0795 15.8178 13.8161L15.3099 13.1356C14.3451 11.8369 13.8167 10.2234 13.8167 8.56246V7.34051C13.8167 4.56734 11.9247 2.26978 9.45307 1.84905V1.19417C9.45307 0.546608 8.96557 0.0234375 8.36216 0.0234375ZM8.36216 3.53563H8.63489C10.5917 3.53563 12.1803 5.24051 12.1803 7.34051V8.56246C12.1803 10.3149 12.6542 12.0234 13.5338 13.4869H3.19057C4.07012 12.0234 4.54398 10.3149 4.54398 8.56246V7.34051C4.54398 5.24051 6.13262 3.53563 8.08944 3.53563H8.36216ZM10.544 16.4137H8.36216H6.18035C6.18035 17.0356 6.40875 17.632 6.81785 18.071C7.22694 18.51 7.78262 18.7551 8.36216 18.7551C8.94171 18.7551 9.49739 18.51 9.90648 18.071C10.3156 17.632 10.544 17.0356 10.544 16.4137Z" fill="#6F2D7A"/>
</svg>
