<svg width="20" height="20" viewBox="0 0 20 20" fill="none" xmlns="http://www.w3.org/2000/svg">
<path d="M19.6206 6.50781C19.7456 6.84766 19.6401 7.22656 19.3706 7.46875L17.6792 9.00781C17.7222 9.33203 17.7456 9.66406 17.7456 10C17.7456 10.3359 17.7222 10.668 17.6792 10.9922L19.3706 12.5312C19.6401 12.7734 19.7456 13.1523 19.6206 13.4922C19.4487 13.957 19.2417 14.4023 19.0034 14.832L18.8198 15.1484C18.562 15.5781 18.273 15.9844 17.9566 16.3672C17.7261 16.6484 17.3433 16.7422 16.9995 16.6328L14.8237 15.9414C14.3003 16.3438 13.7222 16.6797 13.105 16.9336L12.6167 19.1641C12.5386 19.5195 12.2651 19.8008 11.9058 19.8594C11.3667 19.9492 10.812 19.9961 10.2456 19.9961C9.67921 19.9961 9.12452 19.9492 8.58546 19.8594C8.22608 19.8008 7.95265 19.5195 7.87452 19.1641L7.38624 16.9336C6.76905 16.6797 6.19093 16.3438 5.66749 15.9414L3.49562 16.6367C3.15187 16.7461 2.76905 16.6484 2.53858 16.3711C2.22218 15.9883 1.93312 15.582 1.6753 15.1523L1.49171 14.8359C1.25343 14.4062 1.0464 13.9609 0.874522 13.4961C0.749522 13.1562 0.85499 12.7773 1.12452 12.5352L2.81593 10.9961C2.77296 10.668 2.74952 10.3359 2.74952 10C2.74952 9.66406 2.77296 9.33203 2.81593 9.00781L1.12452 7.46875C0.85499 7.22656 0.749522 6.84766 0.874522 6.50781C1.0464 6.04297 1.25343 5.59766 1.49171 5.16797L1.6753 4.85156C1.93312 4.42188 2.22218 4.01562 2.53858 3.63281C2.76905 3.35156 3.15187 3.25781 3.49562 3.36719L5.6714 4.05859C6.19483 3.65625 6.77296 3.32031 7.39015 3.06641L7.87843 0.835938C7.95655 0.480469 8.22999 0.199219 8.58937 0.140625C9.12843 0.046875 9.68312 0 10.2495 0C10.8159 0 11.3706 0.046875 11.9097 0.136719C12.2691 0.195312 12.5425 0.476562 12.6206 0.832031L13.1089 3.0625C13.7261 3.31641 14.3042 3.65234 14.8276 4.05469L17.0034 3.36328C17.3472 3.25391 17.73 3.35156 17.9605 3.62891C18.2769 4.01172 18.5659 4.41797 18.8237 4.84766L19.0073 5.16406C19.2456 5.59375 19.4526 6.03906 19.6245 6.50391L19.6206 6.50781ZM10.2495 13.125C11.0783 13.125 11.8732 12.7958 12.4592 12.2097C13.0453 11.6237 13.3745 10.8288 13.3745 10C13.3745 9.1712 13.0453 8.37634 12.4592 7.79029C11.8732 7.20424 11.0783 6.875 10.2495 6.875C9.42072 6.875 8.62586 7.20424 8.03981 7.79029C7.45376 8.37634 7.12452 9.1712 7.12452 10C7.12452 10.8288 7.45376 11.6237 8.03981 12.2097C8.62586 12.7958 9.42072 13.125 10.2495 13.125Z" fill="white"/>
</svg>
