<svg width="31" height="25" viewBox="0 0 31 25" fill="none" xmlns="http://www.w3.org/2000/svg">
<g clip-path="url(#clip0_408_41181)">
<path d="M7.25 0.5C8.24456 0.5 9.19839 0.895088 9.90165 1.59835C10.6049 2.30161 11 3.25544 11 4.25C11 5.24456 10.6049 6.19839 9.90165 6.90165C9.19839 7.60491 8.24456 8 7.25 8C6.25544 8 5.30161 7.60491 4.59835 6.90165C3.89509 6.19839 3.5 5.24456 3.5 4.25C3.5 3.25544 3.89509 2.30161 4.59835 1.59835C5.30161 0.895088 6.25544 0.5 7.25 0.5ZM24.5 0.5C25.4946 0.5 26.4484 0.895088 27.1516 1.59835C27.8549 2.30161 28.25 3.25544 28.25 4.25C28.25 5.24456 27.8549 6.19839 27.1516 6.90165C26.4484 7.60491 25.4946 8 24.5 8C23.5054 8 22.5516 7.60491 21.8484 6.90165C21.1451 6.19839 20.75 5.24456 20.75 4.25C20.75 3.25544 21.1451 2.30161 21.8484 1.59835C22.5516 0.895088 23.5054 0.5 24.5 0.5ZM0.5 14.5016C0.5 11.7406 2.74062 9.5 5.50156 9.5H7.50312C8.24844 9.5 8.95625 9.66406 9.59375 9.95469C9.53281 10.2922 9.50469 10.6438 9.50469 11C9.50469 12.7906 10.2922 14.3984 11.5344 15.5C11.525 15.5 11.5156 15.5 11.5016 15.5H1.49844C0.95 15.5 0.5 15.05 0.5 14.5016ZM19.4984 15.5C19.4891 15.5 19.4797 15.5 19.4656 15.5C20.7125 14.3984 21.4953 12.7906 21.4953 11C21.4953 10.6438 21.4625 10.2969 21.4062 9.95469C22.0438 9.65938 22.7516 9.5 23.4969 9.5H25.4984C28.2594 9.5 30.5 11.7406 30.5 14.5016C30.5 15.0547 30.05 15.5 29.5016 15.5H19.4984ZM11 11C11 9.80653 11.4741 8.66193 12.318 7.81802C13.1619 6.97411 14.3065 6.5 15.5 6.5C16.6935 6.5 17.8381 6.97411 18.682 7.81802C19.5259 8.66193 20 9.80653 20 11C20 12.1935 19.5259 13.3381 18.682 14.182C17.8381 15.0259 16.6935 15.5 15.5 15.5C14.3065 15.5 13.1619 15.0259 12.318 14.182C11.4741 13.3381 11 12.1935 11 11ZM6.5 23.2484C6.5 19.7984 9.29844 17 12.7484 17H18.2516C21.7016 17 24.5 19.7984 24.5 23.2484C24.5 23.9375 23.9422 24.5 23.2484 24.5H7.75156C7.0625 24.5 6.5 23.9422 6.5 23.2484Z" fill="#2563EB"/>
</g>
<defs>
<clipPath id="clip0_408_41181">
<path d="M0.5 0.5H30.5V24.5H0.5V0.5Z" fill="white"/>
</clipPath>
</defs>
</svg>
