<svg width="18" height="18" viewBox="0 0 18 18" fill="none" xmlns="http://www.w3.org/2000/svg">
<path d="M16.3125 9C16.3125 10.9394 15.5421 12.7994 14.1707 14.1707C12.7994 15.5421 10.9394 16.3125 9 16.3125C7.0606 16.3125 5.20064 15.5421 3.82928 14.1707C2.45792 12.7994 1.6875 10.9394 1.6875 9C1.6875 7.0606 2.45792 5.20064 3.82928 3.82928C5.20064 2.45792 7.0606 1.6875 9 1.6875C10.9394 1.6875 12.7994 2.45792 14.1707 3.82928C15.5421 5.20064 16.3125 7.0606 16.3125 9ZM0 9C0 11.3869 0.948212 13.6761 2.63604 15.364C4.32387 17.0518 6.61305 18 9 18C11.3869 18 13.6761 17.0518 15.364 15.364C17.0518 13.6761 18 11.3869 18 9C18 6.61305 17.0518 4.32387 15.364 2.63604C13.6761 0.948212 11.3869 0 9 0C6.61305 0 4.32387 0.948212 2.63604 2.63604C0.948212 4.32387 0 6.61305 0 9ZM8.15625 4.21875V9C8.15625 9.28125 8.29688 9.54492 8.53242 9.70312L11.9074 11.9531C12.2941 12.2133 12.818 12.1078 13.0781 11.7176C13.3383 11.3273 13.2328 10.807 12.8426 10.5469L9.84375 8.55V4.21875C9.84375 3.75117 9.46758 3.375 9 3.375C8.53242 3.375 8.15625 3.75117 8.15625 4.21875Z" fill="#4A96FF"/>
</svg>
