<svg width="18" height="19" viewBox="0 0 18 19" fill="none" xmlns="http://www.w3.org/2000/svg">
<g clip-path="url(#clip0_1591_941)">
<path d="M11.8125 12.625C15.2297 12.625 18 9.85469 18 6.4375C18 3.02031 15.2297 0.25 11.8125 0.25C8.39531 0.25 5.625 3.02031 5.625 6.4375C5.625 7.09492 5.72695 7.73125 5.9168 8.32539L0.246094 13.9961C0.0878906 14.1543 0 14.3687 0 14.5938V17.4062C0 17.8738 0.376172 18.25 0.84375 18.25H3.65625C4.12383 18.25 4.5 17.8738 4.5 17.4062V16H5.90625C6.37383 16 6.75 15.6238 6.75 15.1562V13.75H8.15625C8.38125 13.75 8.5957 13.6621 8.75391 13.5039L9.92461 12.3332C10.5187 12.523 11.1551 12.625 11.8125 12.625ZM13.2188 3.625C13.5917 3.625 13.9494 3.77316 14.2131 4.03688C14.4768 4.3006 14.625 4.65829 14.625 5.03125C14.625 5.40421 14.4768 5.7619 14.2131 6.02562C13.9494 6.28934 13.5917 6.4375 13.2188 6.4375C12.8458 6.4375 12.4881 6.28934 12.2244 6.02562C11.9607 5.7619 11.8125 5.40421 11.8125 5.03125C11.8125 4.65829 11.9607 4.3006 12.2244 4.03688C12.4881 3.77316 12.8458 3.625 13.2188 3.625Z" fill="#6F2D7A"/>
</g>
<defs>
<clipPath id="clip0_1591_941">
<path d="M0 0.25H18V18.25H0V0.25Z" fill="white"/>
</clipPath>
</defs>
</svg>
