<svg width="18" height="19" viewBox="0 0 18 19" fill="none" xmlns="http://www.w3.org/2000/svg">
<path d="M17.4339 6.10703C17.5464 6.41289 17.4515 6.75391 17.2089 6.97187L15.6866 8.35703C15.7253 8.64883 15.7464 8.94766 15.7464 9.25C15.7464 9.55234 15.7253 9.85117 15.6866 10.143L17.2089 11.5281C17.4515 11.7461 17.5464 12.0871 17.4339 12.393C17.2792 12.8113 17.0929 13.2121 16.8784 13.5988L16.7132 13.8836C16.4812 14.2703 16.221 14.6359 15.9362 14.9805C15.7288 15.2336 15.3843 15.318 15.0749 15.2195L13.1167 14.5973C12.6456 14.9594 12.1253 15.2617 11.5698 15.4902L11.1304 17.4977C11.0601 17.8176 10.814 18.0707 10.4905 18.1234C10.0054 18.2043 9.50616 18.2465 8.9964 18.2465C8.48663 18.2465 7.98741 18.2043 7.50225 18.1234C7.17882 18.0707 6.93272 17.8176 6.86241 17.4977L6.42296 15.4902C5.86749 15.2617 5.34718 14.9594 4.87608 14.5973L2.9214 15.223C2.61202 15.3215 2.26749 15.2336 2.06007 14.984C1.7753 14.6395 1.51515 14.2738 1.28311 13.8871L1.11788 13.6023C0.903427 13.2156 0.717099 12.8148 0.562411 12.3965C0.449911 12.0906 0.544833 11.7496 0.787411 11.5316L2.30968 10.1465C2.27101 9.85117 2.24991 9.55234 2.24991 9.25C2.24991 8.94766 2.27101 8.64883 2.30968 8.35703L0.787411 6.97187C0.544833 6.75391 0.449911 6.41289 0.562411 6.10703C0.717099 5.68867 0.903427 5.28789 1.11788 4.90117L1.28311 4.61641C1.51515 4.22969 1.7753 3.86406 2.06007 3.51953C2.26749 3.26641 2.61202 3.18203 2.9214 3.28047L4.8796 3.90273C5.35069 3.54063 5.87101 3.23828 6.42647 3.00977L6.86593 1.00234C6.93624 0.682422 7.18233 0.429297 7.50577 0.376562C7.99093 0.292187 8.49015 0.25 8.99991 0.25C9.50968 0.25 10.0089 0.292188 10.4941 0.373047C10.8175 0.425781 11.0636 0.678906 11.1339 0.998828L11.5733 3.00625C12.1288 3.23477 12.6491 3.53711 13.1202 3.89922L15.0784 3.27695C15.3878 3.17852 15.7323 3.26641 15.9398 3.51602C16.2245 3.86055 16.4847 4.22617 16.7167 4.61289L16.8819 4.89766C17.0964 5.28437 17.2827 5.68516 17.4374 6.10352L17.4339 6.10703ZM8.99991 12.0625C9.74583 12.0625 10.4612 11.7662 10.9886 11.2387C11.5161 10.7113 11.8124 9.99592 11.8124 9.25C11.8124 8.50408 11.5161 7.78871 10.9886 7.26126C10.4612 6.73382 9.74583 6.4375 8.99991 6.4375C8.25399 6.4375 7.53862 6.73382 7.01117 7.26126C6.48373 7.78871 6.18741 8.50408 6.18741 9.25C6.18741 9.99592 6.48373 10.7113 7.01117 11.2387C7.53862 11.7662 8.25399 12.0625 8.99991 12.0625Z" fill="#6F2D7A"/>
</svg>
