<svg width="26" height="21" viewBox="0 0 26 21" fill="none" xmlns="http://www.w3.org/2000/svg">
<path d="M9.25 10.5C10.5761 10.5 11.8479 9.97322 12.7855 9.03553C13.7232 8.09785 14.25 6.82608 14.25 5.5C14.25 4.17392 13.7232 2.90215 12.7855 1.96447C11.8479 1.02678 10.5761 0.5 9.25 0.5C7.92392 0.5 6.65215 1.02678 5.71447 1.96447C4.77678 2.90215 4.25 4.17392 4.25 5.5C4.25 6.82608 4.77678 8.09785 5.71447 9.03553C6.65215 9.97322 7.92392 10.5 9.25 10.5ZM7.46484 12.375C3.61719 12.375 0.5 15.4922 0.5 19.3398C0.5 19.9805 1.01953 20.5 1.66016 20.5H16.8398C16.9102 20.5 16.9766 20.4922 17.0469 20.4805C14.0664 18.3281 13.1484 14.9727 13.0195 12.6602C12.3906 12.4727 11.7266 12.375 11.0391 12.375H7.46484ZM19.5273 9.31641L14.8398 11.1914C14.4844 11.3359 14.25 11.6797 14.25 12.0625C14.25 14.5352 15.2617 18.6562 19.5156 20.4297C19.7461 20.5273 20.0078 20.5273 20.2383 20.4297C24.4883 18.6562 25.5 14.5352 25.5 12.0625C25.5 11.6797 25.2656 11.3359 24.9102 11.1914L20.2227 9.31641C20 9.22656 19.75 9.22656 19.5273 9.31641ZM23.6016 12.6875C23.4492 14.668 22.5391 17.2461 19.875 18.5352V11.1953L23.6016 12.6875Z" fill="#10B981"/>
</svg>
