<svg width="21" height="19" viewBox="0 0 21 19" fill="none" xmlns="http://www.w3.org/2000/svg">
<path d="M2.86719 0.75C1.48828 0.75 0.367188 1.87109 0.367188 3.25V5.75C0.367188 7.12891 1.48828 8.25 2.86719 8.25H17.8672C19.2461 8.25 20.3672 7.12891 20.3672 5.75V3.25C20.3672 1.87109 19.2461 0.75 17.8672 0.75H2.86719ZM13.8047 3.5625C14.0533 3.5625 14.2918 3.66127 14.4676 3.83709C14.6434 4.0129 14.7422 4.25136 14.7422 4.5C14.7422 4.74864 14.6434 4.9871 14.4676 5.16291C14.2918 5.33873 14.0533 5.4375 13.8047 5.4375C13.556 5.4375 13.3176 5.33873 13.1418 5.16291C12.966 4.9871 12.8672 4.74864 12.8672 4.5C12.8672 4.25136 12.966 4.0129 13.1418 3.83709C13.3176 3.66127 13.556 3.5625 13.8047 3.5625ZM15.6797 4.5C15.6797 4.25136 15.7785 4.0129 15.9543 3.83709C16.1301 3.66127 16.3685 3.5625 16.6172 3.5625C16.8658 3.5625 17.1043 3.66127 17.2801 3.83709C17.4559 4.0129 17.5547 4.25136 17.5547 4.5C17.5547 4.74864 17.4559 4.9871 17.2801 5.16291C17.1043 5.33873 16.8658 5.4375 16.6172 5.4375C16.3685 5.4375 16.1301 5.33873 15.9543 5.16291C15.7785 4.9871 15.6797 4.74864 15.6797 4.5ZM2.86719 10.75C1.48828 10.75 0.367188 11.8711 0.367188 13.25V15.75C0.367188 17.1289 1.48828 18.25 2.86719 18.25H17.8672C19.2461 18.25 20.3672 17.1289 20.3672 15.75V13.25C20.3672 11.8711 19.2461 10.75 17.8672 10.75H2.86719ZM13.8047 13.5625C14.0533 13.5625 14.2918 13.6613 14.4676 13.8371C14.6434 14.0129 14.7422 14.2514 14.7422 14.5C14.7422 14.7486 14.6434 14.9871 14.4676 15.1629C14.2918 15.3387 14.0533 15.4375 13.8047 15.4375C13.556 15.4375 13.3176 15.3387 13.1418 15.1629C12.966 14.9871 12.8672 14.7486 12.8672 14.5C12.8672 14.2514 12.966 14.0129 13.1418 13.8371C13.3176 13.6613 13.556 13.5625 13.8047 13.5625ZM15.9922 14.5C15.9922 14.2514 16.091 14.0129 16.2668 13.8371C16.4426 13.6613 16.681 13.5625 16.9297 13.5625C17.1783 13.5625 17.4168 13.6613 17.5926 13.8371C17.7684 14.0129 17.8672 14.2514 17.8672 14.5C17.8672 14.7486 17.7684 14.9871 17.5926 15.1629C17.4168 15.3387 17.1783 15.4375 16.9297 15.4375C16.681 15.4375 16.4426 15.3387 16.2668 15.1629C16.091 14.9871 15.9922 14.7486 15.9922 14.5Z" fill="#10B981"/>
</svg>
