<svg width="20" height="16" viewBox="0 0 20 16" fill="none" xmlns="http://www.w3.org/2000/svg">
<path d="M3 4C3 2.93913 3.42143 1.92172 4.17157 1.17157C4.92172 0.421427 5.93913 0 7 0C8.06087 0 9.07828 0.421427 9.82843 1.17157C10.5786 1.92172 11 2.93913 11 4C11 5.06087 10.5786 6.07828 9.82843 6.82843C9.07828 7.57857 8.06087 8 7 8C5.93913 8 4.92172 7.57857 4.17157 6.82843C3.42143 6.07828 3 5.06087 3 4ZM0 15.0719C0 11.9937 2.49375 9.5 5.57188 9.5H8.42813C11.5063 9.5 14 11.9937 14 15.0719C14 15.5844 13.5844 16 13.0719 16H0.928125C0.415625 16 0 15.5844 0 15.0719ZM15.75 9.75V7.75H13.75C13.3344 7.75 13 7.41563 13 7C13 6.58437 13.3344 6.25 13.75 6.25H15.75V4.25C15.75 3.83437 16.0844 3.5 16.5 3.5C16.9156 3.5 17.25 3.83437 17.25 4.25V6.25H19.25C19.6656 6.25 20 6.58437 20 7C20 7.41563 19.6656 7.75 19.25 7.75H17.25V9.75C17.25 10.1656 16.9156 10.5 16.5 10.5C16.0844 10.5 15.75 10.1656 15.75 9.75Z" fill="#6F2D7A"/>
</svg>
