<svg width="21" height="16" viewBox="0 0 21 16" fill="none" xmlns="http://www.w3.org/2000/svg">
<path d="M3.125 4C3.125 2.93913 3.54643 1.92172 4.29657 1.17157C5.04672 0.421427 6.06413 0 7.125 0C8.18587 0 9.20328 0.421427 9.95343 1.17157C10.7036 1.92172 11.125 2.93913 11.125 4C11.125 5.06087 10.7036 6.07828 9.95343 6.82843C9.20328 7.57857 8.18587 8 7.125 8C6.06413 8 5.04672 7.57857 4.29657 6.82843C3.54643 6.07828 3.125 5.06087 3.125 4ZM0.125 15.0719C0.125 11.9937 2.61875 9.5 5.69688 9.5H8.55313C11.6313 9.5 14.125 11.9937 14.125 15.0719C14.125 15.5844 13.7094 16 13.1969 16H1.05313C0.540625 16 0.125 15.5844 0.125 15.0719ZM15.875 9.75V7.75H13.875C13.4594 7.75 13.125 7.41563 13.125 7C13.125 6.58437 13.4594 6.25 13.875 6.25H15.875V4.25C15.875 3.83437 16.2094 3.5 16.625 3.5C17.0406 3.5 17.375 3.83437 17.375 4.25V6.25H19.375C19.7906 6.25 20.125 6.58437 20.125 7C20.125 7.41563 19.7906 7.75 19.375 7.75H17.375V9.75C17.375 10.1656 17.0406 10.5 16.625 10.5C16.2094 10.5 15.875 10.1656 15.875 9.75Z" fill="white"/>
</svg>
