<svg width="24" height="23" viewBox="0 0 24 23" fill="none" xmlns="http://www.w3.org/2000/svg">
<path d="M17.055 10.2808C17.1897 10.4155 17.2654 10.5983 17.2654 10.7889C17.2654 10.9795 17.1897 11.1623 17.055 11.2971L11.305 17.0471C11.1702 17.1818 10.9874 17.2575 10.7968 17.2575C10.6062 17.2575 10.4235 17.1818 10.2887 17.0471L7.41368 14.1721C7.28275 14.0365 7.2103 13.8549 7.21194 13.6665C7.21358 13.478 7.28917 13.2978 7.42243 13.1645C7.55569 13.0312 7.73596 12.9557 7.92442 12.954C8.11287 12.9524 8.29443 13.0248 8.42999 13.1558L10.8019 15.5276L16.0487 10.2808C16.1835 10.146 16.3663 10.0703 16.5569 10.0703C16.7475 10.0703 16.9303 10.146 17.0651 10.2808H17.055Z" fill="#16A34A"/>
<path fill-rule="evenodd" clip-rule="evenodd" d="M8.57381 1.4375C8.12299 1.43784 7.68362 1.57947 7.31747 1.84248C6.95133 2.10548 6.67682 2.47664 6.53256 2.90375C5.62837 2.95263 4.99444 3.06619 4.46256 3.33931C3.65307 3.75423 2.99436 4.41294 2.57944 5.22244C2.10938 6.14531 2.10938 7.34994 2.10938 9.76494V16.0899C2.10938 18.5049 2.10938 19.7124 2.57944 20.6324C2.99436 21.4419 3.65307 22.1006 4.46256 22.5156C5.38544 22.9856 6.59006 22.9856 9.00506 22.9856H15.3301C17.7451 22.9856 18.9526 22.9856 19.8726 22.5156C20.6832 22.1022 21.3424 21.4431 21.7557 20.6324C22.2257 19.7096 22.2257 18.5049 22.2257 16.0899V9.76494C22.2257 7.34994 22.2257 6.14244 21.7557 5.22244C21.3424 4.41178 20.6832 3.75263 19.8726 3.33931C19.3378 3.06763 18.7082 2.95263 17.8026 2.90375C17.6583 2.47664 17.3838 2.10548 17.0176 1.84248C16.6515 1.57947 16.2121 1.43784 15.7613 1.4375H15.3761C14.8787 0.577875 13.9501 0 12.8892 0H11.4517C10.3879 0 9.45356 0.577875 8.96481 1.4375H8.57956H8.57381ZM9.9955 2.51562C9.93242 2.62489 9.84169 2.71562 9.73243 2.7787C9.62317 2.84178 9.49923 2.875 9.37306 2.875H8.57381C8.38319 2.875 8.20037 2.95073 8.06558 3.08552C7.93079 3.22031 7.85506 3.40313 7.85506 3.59375V5.03125C7.85506 5.22187 7.93079 5.40469 8.06558 5.53948C8.20037 5.67427 8.38319 5.75 8.57381 5.75H15.7613C15.9519 5.75 16.1348 5.67427 16.2695 5.53948C16.4043 5.40469 16.4801 5.22187 16.4801 5.03125V3.59375C16.4801 3.40313 16.4043 3.22031 16.2695 3.08552C16.1348 2.95073 15.9519 2.875 15.7613 2.875H14.9621C14.8359 2.875 14.712 2.84178 14.6027 2.7787C14.4934 2.71562 14.4027 2.62489 14.3396 2.51562L14.1326 2.15625C14.0065 1.93725 13.8249 1.75536 13.6061 1.62892C13.3873 1.50248 13.139 1.43596 12.8863 1.43606H11.4488C11.1961 1.43596 10.9478 1.50248 10.729 1.62892C10.5102 1.75536 10.3286 1.93725 10.2025 2.15625L9.9955 2.51562ZM6.28675 4.37L6.41469 4.35994V5.03556C6.41469 5.60744 6.64186 6.15589 7.04624 6.56026C7.45061 6.96464 7.99906 7.19181 8.57094 7.19181H15.7584C16.3303 7.19181 16.8788 6.96464 17.2831 6.56026C17.6875 6.15589 17.9147 5.60744 17.9147 5.03556V4.35994L18.0426 4.37C18.6722 4.42175 18.9957 4.51519 19.2199 4.62875C19.7604 4.90475 20.2003 5.34462 20.4763 5.88512C20.5913 6.10938 20.6847 6.43281 20.7351 7.06244C20.7882 7.70931 20.7897 8.54306 20.7897 9.77931V16.1043C20.7897 17.3363 20.7882 18.1743 20.7351 18.8212C20.6833 19.4508 20.5899 19.7743 20.4763 19.9985C20.2007 20.5394 19.7609 20.9792 19.2199 21.2549C18.9957 21.3699 18.6722 21.4633 18.0426 21.5136C17.3957 21.5668 16.562 21.5682 15.3257 21.5682H9.00075C7.76881 21.5682 6.93075 21.5668 6.28387 21.5136C5.65425 21.4619 5.33081 21.3684 5.10656 21.2549C4.56562 20.9792 4.12582 20.5394 3.85019 19.9985C3.73519 19.7743 3.64175 19.4508 3.59144 18.8212C3.53825 18.1743 3.53681 17.3406 3.53681 16.1043V9.77931C3.53681 8.54737 3.53825 7.70931 3.59144 7.06244C3.64319 6.43281 3.73662 6.10938 3.85019 5.88512C4.12619 5.34462 4.56606 4.90475 5.10656 4.62875C5.33081 4.51375 5.65425 4.42031 6.28387 4.37H6.28675Z" fill="#16A34A"/>
</svg>
