<svg width="21" height="16" viewBox="0 0 21 16" fill="none" xmlns="http://www.w3.org/2000/svg">
<path d="M12.6093 1H16.6093C17.1625 1 17.6094 1.44687 17.6094 2C17.6094 2.55312 17.1625 3 16.6093 3H13.0593C12.8968 3.80625 12.3437 4.47188 11.6093 4.79063V14H16.6093C17.1625 14 17.6094 14.4469 17.6094 15C17.6094 15.5531 17.1625 16 16.6093 16H10.6093H4.60935C4.05622 16 3.60935 15.5531 3.60935 15C3.60935 14.4469 4.05622 14 4.60935 14H9.60935V4.79063C8.87497 4.46875 8.32185 3.80312 8.15935 3H4.60935C4.05622 3 3.60935 2.55312 3.60935 2C3.60935 1.44687 4.05622 1 4.60935 1H8.60935C9.0656 0.39375 9.7906 0 10.6093 0C11.4281 0 12.1531 0.39375 12.6093 1ZM14.3468 10H18.8719L16.6093 6.11875L14.3468 10ZM16.6093 13C14.6437 13 13.0093 11.9375 12.6718 10.5344C12.5906 10.1906 12.7031 9.8375 12.8812 9.53125L15.8562 4.43125C16.0125 4.1625 16.3 4 16.6093 4C16.9187 4 17.2062 4.16563 17.3625 4.43125L20.3375 9.53125C20.5156 9.8375 20.6281 10.1906 20.5469 10.5344C20.2094 11.9375 18.575 13 16.6093 13ZM4.57185 6.11875L2.30935 10H6.83747L4.57185 6.11875ZM0.637474 10.5344C0.556224 10.1906 0.668724 9.8375 0.846849 9.53125L3.82185 4.43125C3.9781 4.1625 4.2656 4 4.57497 4C4.88435 4 5.17185 4.16563 5.3281 4.43125L8.3031 9.53125C8.48122 9.8375 8.59372 10.1906 8.51247 10.5344C8.17185 11.9375 6.53747 13 4.57185 13C2.60622 13 0.974974 11.9375 0.637474 10.5344Z" fill="#6F2D7A"/>
</svg>
