<svg width="15" height="15" viewBox="0 0 15 15" fill="none" xmlns="http://www.w3.org/2000/svg">
<g clip-path="url(#clip0_1348_24687)">
<g clip-path="url(#clip1_1348_24687)">
<path d="M13.5516 1.34341C12.9527 0.74458 11.9848 0.74458 11.3859 1.34341L10.5629 2.16372L13.2398 4.84067L14.0629 4.01763C14.6617 3.4188 14.6617 2.45083 14.0629 1.852L13.5516 1.34341ZM5.37031 7.35903C5.20352 7.52583 5.075 7.73091 5.00117 7.95786L4.1918 10.386C4.1125 10.6211 4.17539 10.8809 4.35039 11.0586C4.52539 11.2364 4.78516 11.2965 5.02305 11.2172L7.45117 10.4079C7.67539 10.334 7.88047 10.2055 8.05 10.0387L12.6246 5.46138L9.94492 2.78169L5.37031 7.35903ZM3.28125 2.50005C1.83203 2.50005 0.65625 3.67583 0.65625 5.12505V12.125C0.65625 13.5743 1.83203 14.75 3.28125 14.75H10.2812C11.7305 14.75 12.9062 13.5743 12.9062 12.125V9.50005C12.9062 9.01606 12.5152 8.62505 12.0312 8.62505C11.5473 8.62505 11.1562 9.01606 11.1562 9.50005V12.125C11.1562 12.609 10.7652 13 10.2812 13H3.28125C2.79727 13 2.40625 12.609 2.40625 12.125V5.12505C2.40625 4.64106 2.79727 4.25005 3.28125 4.25005H5.90625C6.39023 4.25005 6.78125 3.85903 6.78125 3.37505C6.78125 2.89106 6.39023 2.50005 5.90625 2.50005H3.28125Z" fill="#6F2D7A"/>
</g>
</g>
<defs>
<clipPath id="clip0_1348_24687">
<rect width="14" height="14" fill="white" transform="translate(0.65625 0.75)"/>
</clipPath>
<clipPath id="clip1_1348_24687">
<path d="M0.65625 0.75H14.6562V14.75H0.65625V0.75Z" fill="white"/>
</clipPath>
</defs>
</svg>
