<svg width="2" height="13" viewBox="0 0 2 13" fill="none" xmlns="http://www.w3.org/2000/svg">
<path d="M1.875 1.5C1.875 1.01602 1.48398 0.625 1 0.625C0.516016 0.625 0.125 1.01602 0.125 1.5V8.5C0.125 8.98398 0.516016 9.375 1 9.375C1.48398 9.375 1.875 8.98398 1.875 8.5V1.5ZM1 12.875C1.29008 12.875 1.56828 12.7598 1.7734 12.5546C1.97852 12.3495 2.09375 12.0713 2.09375 11.7812C2.09375 11.4912 1.97852 11.213 1.7734 11.0079C1.56828 10.8027 1.29008 10.6875 1 10.6875C0.709919 10.6875 0.43172 10.8027 0.226602 11.0079C0.021484 11.213 -0.09375 11.4912 -0.09375 11.7812C-0.09375 12.0713 0.021484 12.3495 0.226602 12.5546C0.43172 12.7598 0.709919 12.875 1 12.875Z" fill="#DC2626"/>
</svg>
