<svg width="17" height="16" viewBox="0 0 17 16" fill="none" xmlns="http://www.w3.org/2000/svg">
<path d="M9.1875 1C9.1875 0.446875 8.74063 0 8.1875 0C7.63438 0 7.1875 0.446875 7.1875 1V8.58438L4.89375 6.29063C4.50313 5.9 3.86875 5.9 3.47813 6.29063C3.0875 6.68125 3.0875 7.31563 3.47813 7.70625L7.47813 11.7063C7.86875 12.0969 8.50313 12.0969 8.89375 11.7063L12.8938 7.70625C13.2844 7.31563 13.2844 6.68125 12.8938 6.29063C12.5031 5.9 11.8687 5.9 11.4781 6.29063L9.1875 8.58438V1ZM2.1875 11C1.08438 11 0.1875 11.8969 0.1875 13V14C0.1875 15.1031 1.08438 16 2.1875 16H14.1875C15.2906 16 16.1875 15.1031 16.1875 14V13C16.1875 11.8969 15.2906 11 14.1875 11H11.0156L9.6 12.4156C8.81875 13.1969 7.55312 13.1969 6.77187 12.4156L5.35938 11H2.1875ZM13.6875 12.75C13.8864 12.75 14.0772 12.829 14.2178 12.9697C14.3585 13.1103 14.4375 13.3011 14.4375 13.5C14.4375 13.6989 14.3585 13.8897 14.2178 14.0303C14.0772 14.171 13.8864 14.25 13.6875 14.25C13.4886 14.25 13.2978 14.171 13.1572 14.0303C13.0165 13.8897 12.9375 13.6989 12.9375 13.5C12.9375 13.3011 13.0165 13.1103 13.1572 12.9697C13.2978 12.829 13.4886 12.75 13.6875 12.75Z" fill="#374151"/>
</svg>
