<svg width="9" height="5" viewBox="0 0 9 5" fill="none" xmlns="http://www.w3.org/2000/svg">
<path fill-rule="evenodd" clip-rule="evenodd" d="M4.98622 4.80911C4.85946 4.93134 4.68755 5 4.50831 5C4.32906 5 4.15715 4.93134 4.03039 4.80911L0.206369 1.12092C0.141806 1.06078 0.0903082 0.98884 0.0548807 0.909297C0.0194533 0.829754 0.00080548 0.744202 2.55226e-05 0.657634C-0.000754434 0.571066 0.0163492 0.485216 0.0503381 0.405091C0.084327 0.324966 0.134521 0.252172 0.19799 0.190957C0.26146 0.129742 0.336934 0.0813313 0.42001 0.0485497C0.503085 0.0157682 0.592098 -0.000727636 0.681854 2.46164e-05C0.77161 0.000776869 0.860312 0.0187623 0.942784 0.0529313C1.02526 0.0871004 1.09985 0.136769 1.1622 0.199038L4.50831 3.42629L7.85441 0.199038C7.9819 0.0802769 8.15265 0.0145621 8.32989 0.0160475C8.50713 0.017533 8.67668 0.0860998 8.80201 0.20698C8.92734 0.327861 8.99843 0.491383 8.99997 0.662327C9.00151 0.833271 8.93338 0.99796 8.81024 1.12092L4.98622 4.80911Z" fill="#0F1728" fill-opacity="0.8"/>
</svg>
