<svg width="22" height="23" viewBox="0 0 22 23" fill="none" xmlns="http://www.w3.org/2000/svg">
<path d="M10.8353 21.0807C12.094 21.0823 13.3407 20.8351 14.5036 20.3534C15.6665 19.8717 16.7227 19.1649 17.6117 18.2738C18.5028 17.3848 19.2096 16.3286 19.6913 15.1657C20.173 14.0028 20.4202 12.7561 20.4186 11.4974C20.4202 10.2387 20.173 8.99205 19.6913 7.82914C19.2096 6.66623 18.5028 5.60996 17.6117 4.72103C16.7227 3.82986 15.6665 3.12311 14.5036 2.6414C13.3407 2.1597 12.094 1.91252 10.8353 1.91407C9.57657 1.91252 8.32994 2.1597 7.16703 2.6414C6.00412 3.12311 4.94786 3.82986 4.05892 4.72103C3.16775 5.60996 2.461 6.66623 1.97929 7.82914C1.49759 8.99205 1.25041 10.2387 1.25196 11.4974C1.25041 12.7561 1.49759 14.0028 1.97929 15.1657C2.461 16.3286 3.16775 17.3848 4.05892 18.2738C4.94786 19.1649 6.00412 19.8717 7.16703 20.3534C8.32994 20.8351 9.57657 21.0823 10.8353 21.0807Z" stroke="#EB3838" stroke-width="1.91667" stroke-linejoin="round"/>
<path fill-rule="evenodd" clip-rule="evenodd" d="M10.8356 17.724C11.1533 17.724 11.458 17.5978 11.6827 17.3731C11.9073 17.1484 12.0335 16.8437 12.0335 16.526C12.0335 16.2083 11.9073 15.9036 11.6827 15.679C11.458 15.4543 11.1533 15.3281 10.8356 15.3281C10.5179 15.3281 10.2132 15.4543 9.98856 15.679C9.7639 15.9036 9.6377 16.2083 9.6377 16.526C9.6377 16.8437 9.7639 17.1484 9.98856 17.3731C10.2132 17.5978 10.5179 17.724 10.8356 17.724Z" fill="#EB3838"/>
<path d="M10.835 5.75V13.4167" stroke="#EB3838" stroke-width="1.91667" stroke-linecap="round" stroke-linejoin="round"/>
</svg>
