<svg width="25" height="21" viewBox="0 0 25 21" fill="none" xmlns="http://www.w3.org/2000/svg">
<path d="M8.75 0.5C10.0761 0.5 11.3479 1.02678 12.2855 1.96447C13.2232 2.90215 13.75 4.17392 13.75 5.5C13.75 6.82608 13.2232 8.09785 12.2855 9.03553C11.3479 9.97322 10.0761 10.5 8.75 10.5C7.42392 10.5 6.15215 9.97322 5.21447 9.03553C4.27678 8.09785 3.75 6.82608 3.75 5.5C3.75 4.17392 4.27678 2.90215 5.21447 1.96447C6.15215 1.02678 7.42392 0.5 8.75 0.5ZM6.96484 12.375H10.5352C11.3398 12.375 12.1133 12.5117 12.832 12.7617C12.6172 13.4297 12.5 14.1367 12.5 14.875C12.5 17.1992 13.6523 19.2539 15.4219 20.5H1.16016C0.519531 20.5 0 19.9805 0 19.3398C0 15.4922 3.11719 12.375 6.96484 12.375ZM13.75 14.875C13.75 13.3832 14.3426 11.9524 15.3975 10.8975C16.4524 9.84263 17.8832 9.25 19.375 9.25C20.8668 9.25 22.2976 9.84263 23.3525 10.8975C24.4074 11.9524 25 13.3832 25 14.875C25 16.3668 24.4074 17.7976 23.3525 18.8525C22.2976 19.9074 20.8668 20.5 19.375 20.5C17.8832 20.5 16.4524 19.9074 15.3975 18.8525C14.3426 17.7976 13.75 16.3668 13.75 14.875ZM19.375 11.75C19.0312 11.75 18.75 12.0312 18.75 12.375V14.875C18.75 15.2188 19.0312 15.5 19.375 15.5H21.25C21.5938 15.5 21.875 15.2188 21.875 14.875C21.875 14.5312 21.5938 14.25 21.25 14.25H20V12.375C20 12.0312 19.7188 11.75 19.375 11.75Z" fill="#16A34A"/>
</svg>
