<svg width="26" height="21" viewBox="0 0 26 21" fill="none" xmlns="http://www.w3.org/2000/svg">
<path d="M6.125 6.75C6.9538 6.75 7.74866 6.42076 8.33471 5.83471C8.92076 5.24866 9.25 4.4538 9.25 3.625C9.25 2.7962 8.92076 2.00134 8.33471 1.41529C7.74866 0.82924 6.9538 0.5 6.125 0.5C5.2962 0.5 4.50134 0.82924 3.91529 1.41529C3.32924 2.00134 3 2.7962 3 3.625C3 4.4538 3.32924 5.24866 3.91529 5.83471C4.50134 6.42076 5.2962 6.75 6.125 6.75ZM20.5 6.75C21.3288 6.75 22.1237 6.42076 22.7097 5.83471C23.2958 5.24866 23.625 4.4538 23.625 3.625C23.625 2.7962 23.2958 2.00134 22.7097 1.41529C22.1237 0.82924 21.3288 0.5 20.5 0.5C19.6712 0.5 18.8763 0.82924 18.2903 1.41529C17.7042 2.00134 17.375 2.7962 17.375 3.625C17.375 4.4538 17.7042 5.24866 18.2903 5.83471C18.8763 6.42076 19.6712 6.75 20.5 6.75ZM0.5 12.168C0.5 12.625 0.875 13 1.33203 13H9.66797C9.67578 13 9.68359 13 9.69531 13C8.65625 12.082 8.00391 10.7422 8.00391 9.25C8.00391 8.95312 8.03125 8.66406 8.07812 8.37891C7.54688 8.13281 6.95703 8 6.33594 8H4.66797C2.36719 8 0.5 9.86719 0.5 12.168ZM13 13C13.9375 13 14.793 12.6562 15.4492 12.0898C15.5469 11.9453 15.6523 11.8047 15.7617 11.6719C15.8672 11.543 15.9844 11.4336 16.1133 11.3477C16.5156 10.7461 16.75 10.0273 16.75 9.25C16.75 7.17969 15.0703 5.5 13 5.5C10.9297 5.5 9.25 7.17969 9.25 9.25C9.25 11.3203 10.9297 13 13 13ZM15.5547 15.3516C15.1523 15.1211 14.8477 14.7188 14.7422 14.25H10.707C7.83203 14.25 5.5 16.582 5.5 19.457C5.5 20.0312 5.96484 20.5 6.54297 20.5H18.2812C18.1992 20.2969 18.1562 20.0742 18.1562 19.8594V19.7422C18.1055 19.7148 18.0508 19.6836 18 19.6523L17.8984 19.7109C17.2422 20.0898 16.3164 20.0234 15.7617 19.332C15.5859 19.1133 15.4258 18.8828 15.2773 18.6445L15.2734 18.6367L15.2695 18.6289L15.1758 18.4688L15.1719 18.4609L15.168 18.4531C15.0352 18.2109 14.918 17.9609 14.8164 17.6992C14.4961 16.8711 14.9023 16.0352 15.5586 15.6562L15.6641 15.5977C15.6641 15.5664 15.6641 15.5391 15.6641 15.5078C15.6641 15.4766 15.6641 15.4492 15.6641 15.418L15.5586 15.3594L15.5547 15.3516ZM21.332 8H19.668C19.0469 8 18.457 8.13672 17.9258 8.37891C17.9766 8.66016 18 8.95312 18 9.25C18 9.92969 17.8633 10.5742 17.6211 11.1641C17.7188 11.1992 17.8125 11.2422 17.8984 11.293L18 11.3516C18.0508 11.3203 18.1016 11.2891 18.1562 11.2617V11.1445C18.1562 10.3867 18.6758 9.61719 19.5547 9.48047C19.8633 9.43359 20.1797 9.40625 20.5 9.40625C20.8203 9.40625 21.1367 9.42969 21.4453 9.48047C22.3242 9.61719 22.8438 10.3867 22.8438 11.1445V11.2617C22.8945 11.2891 22.9492 11.3203 23 11.3516L23.1016 11.293C23.7578 10.9141 24.6836 10.9805 25.2383 11.6719C25.3281 11.7812 25.4141 11.8984 25.4961 12.0117C25.4141 9.78125 23.582 8 21.332 8ZM24.8984 14.4023C25.1445 14.2617 25.2695 13.9688 25.1641 13.6992C25.082 13.4844 24.9844 13.2773 24.875 13.0781L24.7852 12.9219C24.6641 12.7227 24.5312 12.5352 24.3867 12.3555C24.207 12.1328 23.8906 12.0938 23.6445 12.2383L22.9375 12.6484C22.5898 12.3516 22.1914 12.1172 21.75 11.9609V11.1406C21.75 10.8555 21.5586 10.6016 21.2773 10.5586C21.0234 10.5195 20.7656 10.5 20.5 10.5C20.2344 10.5 19.9766 10.5195 19.7227 10.5586C19.4414 10.6016 19.25 10.8555 19.25 11.1406V11.9609C18.8125 12.1172 18.4102 12.3516 18.0625 12.6484L17.3516 12.2383C17.1055 12.0977 16.7891 12.1367 16.6094 12.3555C16.4648 12.5352 16.332 12.7266 16.2109 12.9258L16.1211 13.0781C16.0117 13.2773 15.9141 13.4844 15.832 13.6992C15.7305 13.9648 15.8516 14.2578 16.0977 14.3984L16.8086 14.8086C16.7695 15.0312 16.7461 15.2617 16.7461 15.4961C16.7461 15.7305 16.7695 15.9609 16.8086 16.1797L16.0977 16.5898C15.8516 16.7305 15.7266 17.0234 15.832 17.2891C15.9141 17.5039 16.0117 17.707 16.1211 17.9062L16.2148 18.0664C16.332 18.2656 16.4648 18.4531 16.6094 18.6328C16.7891 18.8555 17.1055 18.8945 17.3516 18.75L18.0625 18.3516C18.4102 18.6484 18.8125 18.8828 19.25 19.0391V19.8594C19.25 20.1445 19.4414 20.3984 19.7227 20.4414C19.9766 20.4805 20.2344 20.5 20.5 20.5C20.7656 20.5 21.0234 20.4805 21.2773 20.4414C21.5586 20.3984 21.75 20.1445 21.75 19.8594V19.0391C22.1875 18.8828 22.5898 18.6484 22.9375 18.3516L23.6484 18.7617C23.8945 18.9023 24.2109 18.8633 24.3906 18.6445C24.5352 18.4648 24.668 18.2773 24.7852 18.0781L24.8789 17.9141C24.9883 17.7148 25.0859 17.5117 25.168 17.2969C25.2695 17.0312 25.1484 16.7383 24.9023 16.5977L24.1914 16.1875C24.2305 15.9648 24.2539 15.7344 24.2539 15.5039C24.2539 15.2734 24.2305 15.0391 24.1914 14.8164L24.9023 14.4062L24.8984 14.4023ZM18.9375 15.5C18.9375 15.0856 19.1021 14.6882 19.3951 14.3951C19.6882 14.1021 20.0856 13.9375 20.5 13.9375C20.9144 13.9375 21.3118 14.1021 21.6049 14.3951C21.8979 14.6882 22.0625 15.0856 22.0625 15.5C22.0625 15.9144 21.8979 16.3118 21.6049 16.6049C21.3118 16.8979 20.9144 17.0625 20.5 17.0625C20.0856 17.0625 19.6882 16.8979 19.3951 16.6049C19.1021 16.3118 18.9375 15.9144 18.9375 15.5Z" fill="#16A34A"/>
</svg>
