<svg width="19" height="21" viewBox="0 0 19 21" fill="none" xmlns="http://www.w3.org/2000/svg">
<path d="M5.33004 14.3307H9.16337M5.33004 9.53906H12.9967M4.85279 2.35156C3.36162 2.3966 2.47325 2.5624 1.858 3.17765C1.01562 4.02098 1.01563 5.37702 1.01563 8.09006V14.325C1.01563 17.039 1.01562 18.395 1.858 19.2384C2.69942 20.0807 4.05546 20.0807 6.76562 20.0807H11.5573C14.2684 20.0807 15.6235 20.0807 16.4649 19.2374C17.3082 18.395 17.3082 17.039 17.3082 14.325V8.09006C17.3082 5.37798 17.3082 4.02098 16.4649 3.17765C15.8506 2.5624 14.9613 2.3966 13.4701 2.35156" stroke="#CF9516" stroke-width="1.4375" stroke-linecap="round" stroke-linejoin="round"/>
<path d="M4.84863 2.59115C4.84863 1.6654 5.59997 0.914062 6.52572 0.914062H11.7965C12.2413 0.914063 12.6679 1.09075 12.9824 1.40527C13.2969 1.71978 13.4736 2.14636 13.4736 2.59115C13.4736 3.03594 13.2969 3.46251 12.9824 3.77702C12.6679 4.09154 12.2413 4.26823 11.7965 4.26823H6.52572C6.08093 4.26823 5.65435 4.09154 5.33984 3.77702C5.02533 3.46251 4.84863 3.03594 4.84863 2.59115Z" stroke="#CF9516" stroke-width="1.4375" stroke-linecap="round" stroke-linejoin="round"/>
</svg>
