<svg width="16" height="19" viewBox="0 0 16 19" fill="none" xmlns="http://www.w3.org/2000/svg">
<path d="M7.875 9.25C9.06847 9.25 10.2131 8.77589 11.057 7.93198C11.9009 7.08807 12.375 5.94347 12.375 4.75C12.375 3.55653 11.9009 2.41193 11.057 1.56802C10.2131 0.724106 9.06847 0.25 7.875 0.25C6.68153 0.25 5.53693 0.724106 4.69302 1.56802C3.84911 2.41193 3.375 3.55653 3.375 4.75C3.375 5.94347 3.84911 7.08807 4.69302 7.93198C5.53693 8.77589 6.68153 9.25 7.875 9.25ZM6.26836 10.9375C2.80547 10.9375 0 13.743 0 17.2059C0 17.7824 0.467578 18.25 1.04414 18.25H14.7059C15.2824 18.25 15.75 17.7824 15.75 17.2059C15.75 13.743 12.9445 10.9375 9.48164 10.9375H6.26836Z" fill="#6F2D7A"/>
</svg>
