<svg width="23" height="21" viewBox="0 0 23 21" fill="none" xmlns="http://www.w3.org/2000/svg">
<path d="M22.7422 10.3867C22.7422 11.0898 22.1562 11.6406 21.4922 11.6406H20.2422L20.2695 17.8984C20.2695 18.0039 20.2617 18.1094 20.25 18.2148V18.8438C20.25 19.707 19.5508 20.4062 18.6875 20.4062H18.0625C18.0195 20.4062 17.9766 20.4062 17.9336 20.4023C17.8789 20.4062 17.8242 20.4062 17.7695 20.4062H16.5H15.5625C14.6992 20.4062 14 19.707 14 18.8438V17.9062V15.4062C14 14.7148 13.4414 14.1562 12.75 14.1562H10.25C9.55859 14.1562 9 14.7148 9 15.4062V17.9062V18.8438C9 19.707 8.30078 20.4062 7.4375 20.4062H6.5H5.25391C5.19531 20.4062 5.13672 20.4023 5.07812 20.3984C5.03125 20.4023 4.98438 20.4062 4.9375 20.4062H4.3125C3.44922 20.4062 2.75 19.707 2.75 18.8438V14.4688C2.75 14.4336 2.75 14.3945 2.75391 14.3594V11.6406H1.5C0.796875 11.6406 0.25 11.0938 0.25 10.3867C0.25 10.0352 0.367188 9.72266 0.640625 9.44922L10.6562 0.71875C10.9297 0.445312 11.2422 0.40625 11.5156 0.40625C11.7891 0.40625 12.1016 0.484375 12.3359 0.679688L22.3125 9.44922C22.625 9.72266 22.7812 10.0352 22.7422 10.3867Z" fill="white"/>
</svg>
