<svg width="20" height="19" viewBox="0 0 20 19" fill="none" xmlns="http://www.w3.org/2000/svg">
<path d="M10 0.75C10.5547 0.75 11.0664 1.04297 11.3477 1.52344L19.7852 15.8984C20.0703 16.3828 20.0703 16.9805 19.793 17.4648C19.5156 17.9492 18.9961 18.25 18.4375 18.25H1.56252C1.00393 18.25 0.484398 17.9492 0.207054 17.4648C-0.0702894 16.9805 -0.0663832 16.3789 0.214867 15.8984L8.65237 1.52344C8.93362 1.04297 9.44534 0.75 10 0.75ZM10 5.75C9.48049 5.75 9.06252 6.16797 9.06252 6.6875V11.0625C9.06252 11.582 9.48049 12 10 12C10.5196 12 10.9375 11.582 10.9375 11.0625V6.6875C10.9375 6.16797 10.5196 5.75 10 5.75ZM11.25 14.5C11.25 14.1685 11.1183 13.8505 10.8839 13.6161C10.6495 13.3817 10.3315 13.25 10 13.25C9.6685 13.25 9.35056 13.3817 9.11614 13.6161C8.88172 13.8505 8.75002 14.1685 8.75002 14.5C8.75002 14.8315 8.88172 15.1495 9.11614 15.3839C9.35056 15.6183 9.6685 15.75 10 15.75C10.3315 15.75 10.6495 15.6183 10.8839 15.3839C11.1183 15.1495 11.25 14.8315 11.25 14.5Z" fill="#EF4444"/>
</svg>
