<svg width="19" height="15" viewBox="0 0 19 15" fill="none" xmlns="http://www.w3.org/2000/svg">
<g clip-path="url(#clip0_1348_24727)">
<path d="M3.28125 4.25C3.28125 3.32174 3.65 2.4315 4.30638 1.77513C4.96275 1.11875 5.85299 0.75 6.78125 0.75C7.70951 0.75 8.59975 1.11875 9.25612 1.77513C9.9125 2.4315 10.2812 3.32174 10.2812 4.25C10.2812 5.17826 9.9125 6.0685 9.25612 6.72487C8.59975 7.38125 7.70951 7.75 6.78125 7.75C5.85299 7.75 4.96275 7.38125 4.30638 6.72487C3.65 6.0685 3.28125 5.17826 3.28125 4.25ZM0.65625 13.9379C0.65625 11.2445 2.83828 9.0625 5.53164 9.0625H8.03086C10.7242 9.0625 12.9062 11.2445 12.9062 13.9379C12.9062 14.3863 12.5426 14.75 12.0941 14.75H1.46836C1.01992 14.75 0.65625 14.3863 0.65625 13.9379ZM17.7461 5.58984L14.2461 9.08984C13.9891 9.34688 13.5734 9.34688 13.3191 9.08984L11.5691 7.33984C11.3121 7.08281 11.3121 6.66719 11.5691 6.41289C11.8262 6.15859 12.2418 6.15586 12.4961 6.41289L13.7812 7.69805L16.8164 4.66016C17.0734 4.40313 17.4891 4.40313 17.7434 4.66016C17.9977 4.91719 18.0004 5.33281 17.7434 5.58711L17.7461 5.58984Z" fill="#16A34A"/>
</g>
<defs>
<clipPath id="clip0_1348_24727">
<path d="M0.65625 0.75H18.1562V14.75H0.65625V0.75Z" fill="white"/>
</clipPath>
</defs>
</svg>
