<svg width="15" height="15" viewBox="0 0 15 15" fill="none" xmlns="http://www.w3.org/2000/svg">
<path d="M2.70703 2.80078L1.77734 1.87109C1.36445 1.4582 0.65625 1.75078 0.65625 2.3332V5.34375C0.65625 5.70742 0.948828 6 1.3125 6H4.32305C4.9082 6 5.20078 5.2918 4.78789 4.87891L3.9457 4.03672C4.89453 3.08789 6.20703 2.5 7.65625 2.5C10.5547 2.5 12.9062 4.85156 12.9062 7.75C12.9062 10.6484 10.5547 13 7.65625 13C6.54063 13 5.50703 12.6527 4.65664 12.0594C4.26016 11.7832 3.71602 11.8789 3.43711 12.2754C3.1582 12.6719 3.25664 13.216 3.65313 13.4949C4.79063 14.2852 6.17148 14.75 7.65625 14.75C11.5227 14.75 14.6562 11.6164 14.6562 7.75C14.6562 3.88359 11.5227 0.75 7.65625 0.75C5.72305 0.75 3.97305 1.53477 2.70703 2.80078ZM7.65625 4.25C7.29258 4.25 7 4.54258 7 4.90625V7.75C7 7.925 7.06836 8.0918 7.19141 8.21484L9.16016 10.1836C9.41719 10.4406 9.83281 10.4406 10.0871 10.1836C10.3414 9.92656 10.3441 9.51094 10.0871 9.25664L8.30977 7.4793V4.90625C8.30977 4.54258 8.01719 4.25 7.65352 4.25H7.65625Z" fill="#4B5563"/>
</svg>
