<svg width="23" height="19" viewBox="0 0 23 19" fill="none" xmlns="http://www.w3.org/2000/svg">
<path d="M7.875 9.25C9.06847 9.25 10.2131 8.77589 11.057 7.93198C11.9009 7.08807 12.375 5.94347 12.375 4.75C12.375 3.55653 11.9009 2.41193 11.057 1.56802C10.2131 0.724106 9.06847 0.25 7.875 0.25C6.68153 0.25 5.53693 0.724106 4.69302 1.56802C3.84911 2.41193 3.375 3.55653 3.375 4.75C3.375 5.94347 3.84911 7.08807 4.69302 7.93198C5.53693 8.77589 6.68153 9.25 7.875 9.25ZM6.26836 10.9375C2.80547 10.9375 0 13.743 0 17.2059C0 17.7824 0.467578 18.25 1.04414 18.25H14.7059C14.7691 18.25 14.8289 18.243 14.8922 18.2324C12.2098 16.2953 11.3836 13.2754 11.2676 11.1941C10.7016 11.0254 10.1039 10.9375 9.48516 10.9375H6.26836ZM17.1246 8.18477L12.9059 9.87227C12.5859 10.0023 12.375 10.3117 12.375 10.6562C12.375 12.8816 13.2855 16.5906 17.1141 18.1867C17.3215 18.2746 17.557 18.2746 17.7645 18.1867C21.5895 16.5906 22.5 12.8816 22.5 10.6562C22.5 10.3117 22.2891 10.0023 21.9691 9.87227L17.7504 8.18477C17.55 8.10391 17.325 8.10391 17.1246 8.18477ZM20.7914 11.2188C20.6543 13.0012 19.8352 15.3215 17.4375 16.4816V9.87578L20.7914 11.2188Z" fill="#6F2D7A"/>
</svg>
