<svg width="24" height="21" viewBox="0 0 24 21" fill="none" xmlns="http://www.w3.org/2000/svg">
<g clip-path="url(#clip0_1348_25553)">
<path d="M12.8203 4.64062C13.2656 4.36719 13.5625 3.87109 13.5625 3.3125C13.5625 2.44922 12.8633 1.75 12 1.75C11.1367 1.75 10.4375 2.44922 10.4375 3.3125C10.4375 3.875 10.7344 4.36719 11.1797 4.64062L8.94141 9.11719C8.58594 9.82812 7.66406 10.0312 7.04297 9.53516L3.5625 6.75C3.75781 6.48828 3.875 6.16406 3.875 5.8125C3.875 4.94922 3.17578 4.25 2.3125 4.25C1.44922 4.25 0.75 4.94922 0.75 5.8125C0.75 6.67578 1.44922 7.375 2.3125 7.375C2.32031 7.375 2.33203 7.375 2.33984 7.375L4.125 17.1953C4.33984 18.3828 5.375 19.25 6.58594 19.25H17.4141C18.6211 19.25 19.6562 18.3867 19.875 17.1953L21.6602 7.375C21.668 7.375 21.6797 7.375 21.6875 7.375C22.5508 7.375 23.25 6.67578 23.25 5.8125C23.25 4.94922 22.5508 4.25 21.6875 4.25C20.8242 4.25 20.125 4.94922 20.125 5.8125C20.125 6.16406 20.2422 6.48828 20.4375 6.75L16.957 9.53516C16.3359 10.0312 15.4141 9.82812 15.0586 9.11719L12.8203 4.64062Z" fill="#DC2626"/>
</g>
<defs>
<clipPath id="clip0_1348_25553">
<path d="M0.75 0.5H23.25V20.5H0.75V0.5Z" fill="white"/>
</clipPath>
</defs>
</svg>
