<svg width="19" height="15" viewBox="0 0 19 15" fill="none" xmlns="http://www.w3.org/2000/svg">
<g clip-path="url(#clip0_1348_24694)">
<path d="M1.71722 0.889485C1.43284 0.665266 1.01995 0.717219 0.795735 1.00159C0.571516 1.28597 0.623469 1.69886 0.907844 1.92308L17.0953 14.6106C17.3797 14.8348 17.7926 14.7828 18.0168 14.4985C18.241 14.2141 18.1891 13.8012 17.9047 13.577L10.3168 7.62972C11.8098 7.2305 12.9063 5.86878 12.9063 4.25003C12.9063 2.31683 11.3395 0.750032 9.40628 0.750032C7.49769 0.750032 5.9473 2.27581 5.90628 4.17347L1.71722 0.889485ZM7.88323 9.07073C5.31839 9.21019 3.28128 11.3375 3.28128 13.9379C3.28128 14.3864 3.64495 14.75 4.09339 14.75H14.7192C14.8258 14.75 14.927 14.7309 15.02 14.6926L7.88323 9.07073Z" fill="#DC2626"/>
</g>
<defs>
<clipPath id="clip0_1348_24694">
<path d="M0.65625 0.75H18.1562V14.75H0.65625V0.75Z" fill="white"/>
</clipPath>
</defs>
</svg>
