<svg width="26" height="21" viewBox="0 0 26 21" fill="none" xmlns="http://www.w3.org/2000/svg">
<path d="M6.125 0.5C6.9538 0.5 7.74866 0.82924 8.33471 1.41529C8.92076 2.00134 9.25 2.7962 9.25 3.625C9.25 4.4538 8.92076 5.24866 8.33471 5.83471C7.74866 6.42076 6.9538 6.75 6.125 6.75C5.2962 6.75 4.50134 6.42076 3.91529 5.83471C3.32924 5.24866 3 4.4538 3 3.625C3 2.7962 3.32924 2.00134 3.91529 1.41529C4.50134 0.82924 5.2962 0.5 6.125 0.5ZM20.5 0.5C21.3288 0.5 22.1237 0.82924 22.7097 1.41529C23.2958 2.00134 23.625 2.7962 23.625 3.625C23.625 4.4538 23.2958 5.24866 22.7097 5.83471C22.1237 6.42076 21.3288 6.75 20.5 6.75C19.6712 6.75 18.8763 6.42076 18.2903 5.83471C17.7042 5.24866 17.375 4.4538 17.375 3.625C17.375 2.7962 17.7042 2.00134 18.2903 1.41529C18.8763 0.82924 19.6712 0.5 20.5 0.5ZM0.5 12.168C0.5 9.86719 2.36719 8 4.66797 8H6.33594C6.95703 8 7.54688 8.13672 8.07812 8.37891C8.02734 8.66016 8.00391 8.95312 8.00391 9.25C8.00391 10.7422 8.66016 12.082 9.69531 13C9.6875 13 9.67969 13 9.66797 13H1.33203C0.875 13 0.5 12.625 0.5 12.168ZM16.332 13C16.3242 13 16.3164 13 16.3047 13C17.3438 12.082 17.9961 10.7422 17.9961 9.25C17.9961 8.95312 17.9688 8.66406 17.9219 8.37891C18.4531 8.13281 19.043 8 19.6641 8H21.332C23.6328 8 25.5 9.86719 25.5 12.168C25.5 12.6289 25.125 13 24.668 13H16.332ZM9.25 9.25C9.25 8.25544 9.64509 7.30161 10.3483 6.59835C11.0516 5.89509 12.0054 5.5 13 5.5C13.9946 5.5 14.9484 5.89509 15.6517 6.59835C16.3549 7.30161 16.75 8.25544 16.75 9.25C16.75 10.2446 16.3549 11.1984 15.6517 11.9017C14.9484 12.6049 13.9946 13 13 13C12.0054 13 11.0516 12.6049 10.3483 11.9017C9.64509 11.1984 9.25 10.2446 9.25 9.25ZM5.5 19.457C5.5 16.582 7.83203 14.25 10.707 14.25H15.293C18.168 14.25 20.5 16.582 20.5 19.457C20.5 20.0312 20.0352 20.5 19.457 20.5H6.54297C5.96875 20.5 5.5 20.0352 5.5 19.457Z" fill="#6F2D7A"/>
</svg>
