<svg width="16" height="18" viewBox="0 0 16 18" fill="none" xmlns="http://www.w3.org/2000/svg">
<path d="M10.6875 4.5C10.6875 3.75408 10.3912 3.03871 9.86374 2.51126C9.33629 1.98382 8.62092 1.6875 7.875 1.6875C7.12908 1.6875 6.41371 1.98382 5.88626 2.51126C5.35882 3.03871 5.0625 3.75408 5.0625 4.5C5.0625 5.24592 5.35882 5.96129 5.88626 6.48874C6.41371 7.01618 7.12908 7.3125 7.875 7.3125C8.62092 7.3125 9.33629 7.01618 9.86374 6.48874C10.3912 5.96129 10.6875 5.24592 10.6875 4.5ZM3.375 4.5C3.375 3.30653 3.84911 2.16193 4.69302 1.31802C5.53693 0.474106 6.68153 0 7.875 0C9.06847 0 10.2131 0.474106 11.057 1.31802C11.9009 2.16193 12.375 3.30653 12.375 4.5C12.375 5.69347 11.9009 6.83807 11.057 7.68198C10.2131 8.52589 9.06847 9 7.875 9C6.68153 9 5.53693 8.52589 4.69302 7.68198C3.84911 6.83807 3.375 5.69347 3.375 4.5ZM1.7332 16.3125H14.0168C13.7039 14.0871 11.7914 12.375 9.48164 12.375H6.26836C3.95859 12.375 2.04609 14.0871 1.7332 16.3125ZM0 16.9559C0 13.493 2.80547 10.6875 6.26836 10.6875H9.48164C12.9445 10.6875 15.75 13.493 15.75 16.9559C15.75 17.5324 15.2824 18 14.7059 18H1.04414C0.467578 18 0 17.5324 0 16.9559Z" fill="#4A96FF"/>
</svg>
