<svg width="14" height="18" viewBox="0 0 14 18" fill="none" xmlns="http://www.w3.org/2000/svg">
<path d="M7.5832 17.55C9.38672 15.293 13.5 9.82266 13.5 6.75C13.5 3.02344 10.4766 0 6.75 0C3.02344 0 0 3.02344 0 6.75C0 9.82266 4.11328 15.293 5.9168 17.55C6.34922 18.0879 7.15078 18.0879 7.5832 17.55ZM6.75 4.5C7.34674 4.5 7.91903 4.73705 8.34099 5.15901C8.76295 5.58097 9 6.15326 9 6.75C9 7.34674 8.76295 7.91903 8.34099 8.34099C7.91903 8.76295 7.34674 9 6.75 9C6.15326 9 5.58097 8.76295 5.15901 8.34099C4.73705 7.91903 4.5 7.34674 4.5 6.75C4.5 6.15326 4.73705 5.58097 5.15901 5.15901C5.58097 4.73705 6.15326 4.5 6.75 4.5Z" fill="#4A96FF"/>
</svg>
