<svg width="19" height="21" viewBox="0 0 19 21" fill="none" xmlns="http://www.w3.org/2000/svg">
<path d="M5.75 0.5C6.44141 0.5 7 1.05859 7 1.75V3H12V1.75C12 1.05859 12.5586 0.5 13.25 0.5C13.9414 0.5 14.5 1.05859 14.5 1.75V3H16.375C17.4102 3 18.25 3.83984 18.25 4.875V6.75H0.75V4.875C0.75 3.83984 1.58984 3 2.625 3H4.5V1.75C4.5 1.05859 5.05859 0.5 5.75 0.5ZM0.75 8H18.25V18.625C18.25 19.6602 17.4102 20.5 16.375 20.5H2.625C1.58984 20.5 0.75 19.6602 0.75 18.625V8ZM3.25 11.125V12.375C3.25 12.7188 3.53125 13 3.875 13H5.125C5.46875 13 5.75 12.7188 5.75 12.375V11.125C5.75 10.7812 5.46875 10.5 5.125 10.5H3.875C3.53125 10.5 3.25 10.7812 3.25 11.125ZM8.25 11.125V12.375C8.25 12.7188 8.53125 13 8.875 13H10.125C10.4688 13 10.75 12.7188 10.75 12.375V11.125C10.75 10.7812 10.4688 10.5 10.125 10.5H8.875C8.53125 10.5 8.25 10.7812 8.25 11.125ZM13.875 10.5C13.5312 10.5 13.25 10.7812 13.25 11.125V12.375C13.25 12.7188 13.5312 13 13.875 13H15.125C15.4688 13 15.75 12.7188 15.75 12.375V11.125C15.75 10.7812 15.4688 10.5 15.125 10.5H13.875ZM3.25 16.125V17.375C3.25 17.7188 3.53125 18 3.875 18H5.125C5.46875 18 5.75 17.7188 5.75 17.375V16.125C5.75 15.7812 5.46875 15.5 5.125 15.5H3.875C3.53125 15.5 3.25 15.7812 3.25 16.125ZM8.875 15.5C8.53125 15.5 8.25 15.7812 8.25 16.125V17.375C8.25 17.7188 8.53125 18 8.875 18H10.125C10.4688 18 10.75 17.7188 10.75 17.375V16.125C10.75 15.7812 10.4688 15.5 10.125 15.5H8.875ZM13.25 16.125V17.375C13.25 17.7188 13.5312 18 13.875 18H15.125C15.4688 18 15.75 17.7188 15.75 17.375V16.125C15.75 15.7812 15.4688 15.5 15.125 15.5H13.875C13.5312 15.5 13.25 15.7812 13.25 16.125Z" fill="#CF9516"/>
</svg>
