<svg width="6" height="14" viewBox="0 0 6 14" fill="none" xmlns="http://www.w3.org/2000/svg">
<path d="M1.6875 1.9375C1.6875 1.5894 1.82578 1.25556 2.07192 1.00942C2.31806 0.763281 2.6519 0.625 3 0.625C3.3481 0.625 3.68194 0.763281 3.92808 1.00942C4.17422 1.25556 4.3125 1.5894 4.3125 1.9375C4.3125 2.2856 4.17422 2.61944 3.92808 2.86558C3.68194 3.11172 3.3481 3.25 3 3.25C2.6519 3.25 2.31806 3.11172 2.07192 2.86558C1.82578 2.61944 1.6875 2.2856 1.6875 1.9375ZM0.375 5.875C0.375 5.39102 0.766016 5 1.25 5H3C3.48398 5 3.875 5.39102 3.875 5.875V12H4.75C5.23398 12 5.625 12.391 5.625 12.875C5.625 13.359 5.23398 13.75 4.75 13.75H1.25C0.766016 13.75 0.375 13.359 0.375 12.875C0.375 12.391 0.766016 12 1.25 12H2.125V6.75H1.25C0.766016 6.75 0.375 6.35898 0.375 5.875Z" fill="#CA8A04"/>
</svg>
